<svg width="216" height="160" viewBox="0 0 216 160" fill="none" xmlns="http://www.w3.org/2000/svg">
<mask id="mask0_583_2935" style="mask-type:alpha" maskUnits="userSpaceOnUse" x="50" y="1" width="72" height="71">
<path d="M121.996 36.5C121.996 56.1061 106.102 72 86.4961 72C66.89 72 50.9961 56.1061 50.9961 36.5C50.9961 16.8939 66.89 1 86.4961 1C106.102 1 121.996 16.8939 121.996 36.5Z" fill="#6E83A3"/>
</mask>
<g mask="url(#mask0_583_2935)">
<path d="M121.996 36.5C121.996 56.1061 106.102 72 86.4961 72C66.89 72 50.9961 56.1061 50.9961 36.5C50.9961 16.8939 66.89 1 86.4961 1C106.102 1 121.996 16.8939 121.996 36.5Z" fill="#8094B3"/>
<g filter="url(#filter0_f_583_2935)">
<path d="M73.9961 44.5C73.9961 38.1487 79.1448 33 85.4961 33H164.996C167.758 33 169.996 35.2386 169.996 38V39C169.996 48.3888 162.385 56 152.996 56H85.4961C79.1448 56 73.9961 50.8513 73.9961 44.5Z" fill="#697FA1"/>
</g>
</g>
<mask id="mask1_583_2935" style="mask-type:alpha" maskUnits="userSpaceOnUse" x="49" y="9" width="89" height="140">
<path fill-rule="evenodd" clip-rule="evenodd" d="M78.7641 9.56043C59.1569 13.0389 46.082 31.7535 49.5604 51.3607L66.8224 148.662L137.826 136.066L120.564 38.7641C117.086 19.1569 98.3713 6.08197 78.7641 9.56043ZM88.5622 64.7857C99.4551 62.8532 106.719 52.4562 104.786 41.5633C102.854 30.6704 92.457 23.4066 81.5641 25.3391C70.6712 27.2715 63.4074 37.6685 65.3398 48.5614C67.2723 59.4543 77.6693 66.7181 88.5622 64.7857Z" fill="#E4E9F2" fill-opacity="0.5"/>
</mask>
<g mask="url(#mask1_583_2935)">
<g filter="url(#filter1_b_583_2935)">
<path fill-rule="evenodd" clip-rule="evenodd" d="M78.7641 9.56043C59.1569 13.0389 46.082 31.7535 49.5604 51.3607L66.8224 148.662L137.826 136.066L120.564 38.7641C117.086 19.1569 98.3713 6.08197 78.7641 9.56043ZM88.5622 64.7857C99.4551 62.8532 106.719 52.4562 104.786 41.5633C102.854 30.6704 92.457 23.4066 81.5641 25.3391C70.6712 27.2715 63.4074 37.6685 65.3398 48.5614C67.2723 59.4543 77.6693 66.7181 88.5622 64.7857Z" fill="#E4E9F2"/>
</g>
<path d="M49.8066 51.317C46.3522 31.8458 59.3365 13.2609 78.8078 9.80658C98.279 6.35225 116.864 19.3365 120.318 38.8078L137.536 135.863L67.0249 148.372L49.8066 51.317ZM88.6059 65.0318C99.6347 63.0752 106.989 52.5485 105.033 41.5196C103.076 30.4908 92.5492 23.1363 81.5204 25.0929C70.4916 27.0495 63.1371 37.5763 65.0937 48.6051C67.0503 59.6339 77.577 66.9884 88.6059 65.0318Z" stroke="black" stroke-opacity="0.05" stroke-width="0.5"/>
<path fill-rule="evenodd" clip-rule="evenodd" d="M88.562 64.7858C99.4549 62.8533 106.719 52.4563 104.786 41.5634C102.854 30.6706 92.4568 23.4067 81.5639 25.3392C70.671 27.2717 63.4072 37.6687 65.3397 48.5615C67.2721 59.4544 77.6691 66.7183 88.562 64.7858Z" stroke="url(#paint0_linear_583_2935)"/>
<path d="M120.564 38.7641C117.086 19.1569 98.3713 6.08197 78.7641 9.56043C59.1569 13.0389 46.082 31.7535 49.5604 51.3607L56.504 90.5" stroke="url(#paint1_linear_583_2935)"/>
</g>
<mask id="mask2_583_2935" style="mask-type:alpha" maskUnits="userSpaceOnUse" x="74" y="28" width="96" height="23">
<path d="M74 39.5C74 33.1487 79.1487 28 85.5 28H165C167.761 28 170 30.2386 170 33V34C170 43.3888 162.389 51 153 51H85.5C79.1487 51 74 45.8513 74 39.5Z" fill="#889BB7"/>
</mask>
<g mask="url(#mask2_583_2935)">
<path d="M74 39.5C74 33.1487 79.1487 28 85.5 28H165C167.761 28 170 30.2386 170 33V34C170 43.3888 162.389 51 153 51H85.5C79.1487 51 74 45.8513 74 39.5Z" fill="#697FA2"/>
<path d="M74 36.5C74 30.1487 79.1487 25 85.5 25H165C167.761 25 170 27.2386 170 30V31C170 40.3888 162.389 48 153 48H85.5C79.1487 48 74 42.8513 74 36.5Z" fill="url(#paint2_linear_583_2935)"/>
<path d="M74.5 39.5C74.5 33.4249 79.4249 28.5 85.5 28.5H165C167.485 28.5 169.5 30.5147 169.5 33V34C169.5 43.1127 162.113 50.5 153 50.5H85.5C79.4249 50.5 74.5 45.5751 74.5 39.5Z" stroke="url(#paint3_linear_583_2935)"/>
</g>
<path d="M92.4299 113.95L101.674 112.31L97.44 83.0667L86.3467 85.0347L92.4299 113.95ZM99.7539 128.359C103.481 127.698 105.32 125.3 104.708 121.852C104.091 118.375 101.539 116.756 97.8127 117.417C94.086 118.078 92.2757 120.471 92.8926 123.948C93.5042 127.396 96.0272 129.02 99.7539 128.359Z" fill="#5E7496" fill-opacity="0.76"/>
<defs>
<filter id="filter0_f_583_2935" x="63.9961" y="23" width="116" height="43" filterUnits="userSpaceOnUse" color-interpolation-filters="sRGB">
<feFlood flood-opacity="0" result="BackgroundImageFix"/>
<feBlend mode="normal" in="SourceGraphic" in2="BackgroundImageFix" result="shape"/>
<feGaussianBlur stdDeviation="5" result="effect1_foregroundBlur_583_2935"/>
</filter>
<filter id="filter1_b_583_2935" x="29" y="-11" width="128.826" height="179.662" filterUnits="userSpaceOnUse" color-interpolation-filters="sRGB">
<feFlood flood-opacity="0" result="BackgroundImageFix"/>
<feGaussianBlur in="BackgroundImageFix" stdDeviation="10"/>
<feComposite in2="SourceAlpha" operator="in" result="effect1_backgroundBlur_583_2935"/>
<feBlend mode="normal" in="SourceGraphic" in2="effect1_backgroundBlur_583_2935" result="shape"/>
</filter>
<linearGradient id="paint0_linear_583_2935" x1="108.5" y1="6.50012" x2="76" y2="100.5" gradientUnits="userSpaceOnUse">
<stop offset="0.63956" stop-color="white" stop-opacity="0.69"/>
<stop offset="0.876538" stop-color="white" stop-opacity="0"/>
</linearGradient>
<linearGradient id="paint1_linear_583_2935" x1="106" y1="5" x2="73.5" y2="56.5" gradientUnits="userSpaceOnUse">
<stop offset="0.323817" stop-color="white" stop-opacity="0.69"/>
<stop offset="0.876538" stop-color="white" stop-opacity="0"/>
</linearGradient>
<linearGradient id="paint2_linear_583_2935" x1="84" y1="30" x2="233.5" y2="68" gradientUnits="userSpaceOnUse">
<stop stop-color="#8C9FBD"/>
<stop offset="0.55065" stop-color="#889BB7" stop-opacity="0.6"/>
</linearGradient>
<linearGradient id="paint3_linear_583_2935" x1="118" y1="5" x2="122.004" y2="64.5" gradientUnits="userSpaceOnUse">
<stop offset="0.287843" stop-color="#A5B6CF"/>
<stop offset="0.662359" stop-color="#A5B6CF" stop-opacity="0"/>
</linearGradient>
</defs>
</svg>
