<svg width="216" height="160" viewBox="0 0 216 160" fill="none" xmlns="http://www.w3.org/2000/svg">
<mask id="mask0_299_28942" style="mask-type:alpha" maskUnits="userSpaceOnUse" x="26" y="3" width="125" height="154">
<path d="M26.4123 18.4191C26.1846 16.2218 27.7813 14.2559 29.9787 14.0282L132.43 3.4123C134.628 3.18461 136.593 4.78136 136.821 6.97873L150.735 141.26C150.963 143.457 149.366 145.423 147.169 145.651L44.7172 156.267C42.5198 156.494 40.5539 154.898 40.3263 152.7L26.4123 18.4191Z" fill="#E4E9F2"/>
</mask>
<g mask="url(#mask0_299_28942)">
<rect x="21.7109" y="11.8687" width="117" height="149" transform="rotate(-5.91579 21.7109 11.8687)" fill="url(#paint0_linear_299_28942)"/>
<path fill-rule="evenodd" clip-rule="evenodd" d="M114.48 33.9249C114.565 34.7489 113.966 35.4861 113.142 35.5715L50.4776 42.0647C49.6536 42.1501 48.9164 41.5513 48.831 40.7273L48.5218 37.7432C48.4364 36.9192 49.0352 36.182 49.8592 36.0966L112.524 29.6034C113.348 29.518 114.085 30.1168 114.17 30.9408L114.48 33.9249ZM116.335 51.829C116.42 52.653 115.821 53.3902 114.997 53.4756L52.3328 59.9688C51.5088 60.0542 50.7716 59.4554 50.6862 58.6314L50.377 55.6474C50.2916 54.8234 50.8904 54.0861 51.7144 54.0008L114.379 47.5076C115.203 47.4222 115.94 48.021 116.026 48.845L116.335 51.829ZM98.2964 71.7945C98.3818 72.6185 97.783 73.3557 96.959 73.4411L54.188 77.8729C53.364 77.9583 52.6268 77.3596 52.5414 76.5355L52.2322 73.5515C52.1468 72.7275 52.7456 71.9903 53.5696 71.9049L96.3406 67.473C97.1646 67.3877 97.9018 67.9864 97.9872 68.8105L98.2964 71.7945Z" fill="url(#paint1_linear_299_28942)"/>
<path d="M26.6609 18.3934C26.4475 16.3333 27.9444 14.4903 30.0045 14.2768L132.456 3.66097C134.516 3.44751 136.359 4.94446 136.572 7.0045L150.486 141.286C150.7 143.346 149.203 145.189 147.143 145.402L44.6915 156.018C42.6314 156.231 40.7884 154.734 40.5749 152.674L26.6609 18.3934Z" stroke="black" stroke-opacity="0.05" stroke-width="0.5"/>
<g filter="url(#filter0_f_299_28942)">
<circle cx="140.604" cy="107.604" r="36.1039" stroke="#889BB7" stroke-opacity="0.7" stroke-width="7"/>
</g>
</g>
<mask id="mask1_299_28942" style="mask-type:alpha" maskUnits="userSpaceOnUse" x="103" y="54" width="75" height="74">
<circle cx="140.621" cy="90.9204" r="36.8161" fill="#E4E9F2"/>
</mask>
<g mask="url(#mask1_299_28942)">
<g filter="url(#filter1_b_299_28942)">
<circle cx="140.621" cy="90.9204" r="36.8161" fill="#E4E9F2"/>
</g>
<mask id="mask2_299_28942" style="mask-type:alpha" maskUnits="userSpaceOnUse" x="32" y="4" width="125" height="154">
<path d="M32.4123 19.4195C32.1846 17.2221 33.7813 15.2562 35.9787 15.0285L138.43 4.41267C140.628 4.18498 142.593 5.78172 142.821 7.9791L156.735 142.26C156.963 144.458 155.366 146.423 153.169 146.651L50.7172 157.267C48.5198 157.495 46.5539 155.898 46.3263 153.701L32.4123 19.4195Z" fill="white"/>
</mask>
<g mask="url(#mask2_299_28942)">
<g filter="url(#filter2_f_299_28942)">
<path d="M32.4123 19.4195C32.1846 17.2221 33.7813 15.2562 35.9787 15.0285L138.43 4.41267C140.628 4.18498 142.593 5.78172 142.821 7.9791L156.735 142.26C156.963 144.458 155.366 146.423 153.169 146.651L50.7172 157.267C48.5198 157.495 46.5539 155.898 46.3263 153.701L32.4123 19.4195Z" fill="white"/>
</g>
<g filter="url(#filter3_f_299_28942)">
<circle cx="140.604" cy="107.604" r="36.1039" stroke="#889BB7" stroke-width="7"/>
</g>
<path d="M32.6609 19.3937C32.4475 17.3337 33.9444 15.4907 36.0045 15.2772L138.456 4.66134C140.516 4.44788 142.359 5.94483 142.572 8.00487L156.486 142.286C156.7 144.346 155.203 146.189 153.143 146.402L50.6915 157.018C48.6314 157.232 46.7884 155.735 46.5749 153.675L32.6609 19.3937Z" stroke="url(#paint2_linear_299_28942)" stroke-opacity="0.17" stroke-width="0.5"/>
</g>
</g>
<mask id="mask3_299_28942" style="mask-type:alpha" maskUnits="userSpaceOnUse" x="162" y="111" width="34" height="34">
<path fill-rule="evenodd" clip-rule="evenodd" d="M190.332 142.669C188.371 144.629 185.189 144.62 183.24 142.648L162.599 121.76L173.184 111.176L194.071 131.817C196.043 133.766 196.053 136.948 194.092 138.909L190.332 142.669Z" fill="black"/>
</mask>
<g mask="url(#mask3_299_28942)">
<path fill-rule="evenodd" clip-rule="evenodd" d="M190.332 142.669C188.371 144.629 185.189 144.62 183.24 142.648L162.599 121.76L173.184 111.176L194.071 131.817C196.043 133.766 196.053 136.948 194.092 138.909L190.332 142.669Z" fill="#889BB7"/>
<path fill-rule="evenodd" clip-rule="evenodd" d="M188.332 145.669C186.371 147.629 183.189 147.62 181.24 145.648L160.599 124.76L171.184 114.176L192.071 134.817C194.043 136.766 194.053 139.948 192.092 141.909L188.332 145.669Z" fill="#768BAA"/>
</g>
<circle cx="140.604" cy="91.6045" r="36.1039" stroke="url(#paint3_linear_299_28942)" stroke-width="7"/>
<path d="M164.398 123.224L164.245 123.07L164.07 123.199C157.518 128.074 149.398 130.958 140.604 130.958C118.869 130.958 101.25 113.339 101.25 91.6045C101.25 69.8699 118.869 52.2506 140.604 52.2506C162.338 52.2506 179.958 69.8699 179.958 91.6045C179.958 99.1569 177.831 106.212 174.143 112.203L174.039 112.372L174.18 112.512L193.895 131.994C195.769 133.846 195.778 136.869 193.915 138.732L190.155 142.492C188.292 144.355 185.269 144.346 183.418 142.472L164.398 123.224ZM140.604 124.458C158.749 124.458 173.458 109.749 173.458 91.6045C173.458 73.4598 158.749 58.7506 140.604 58.7506C122.459 58.7506 107.75 73.4598 107.75 91.6045C107.75 109.749 122.459 124.458 140.604 124.458Z" stroke="black" stroke-opacity="0.05" stroke-width="0.5"/>
<defs>
<filter id="filter0_f_299_28942" x="85" y="52.0005" width="111.207" height="111.208" filterUnits="userSpaceOnUse" color-interpolation-filters="sRGB">
<feFlood flood-opacity="0" result="BackgroundImageFix"/>
<feBlend mode="normal" in="SourceGraphic" in2="BackgroundImageFix" result="shape"/>
<feGaussianBlur stdDeviation="8" result="effect1_foregroundBlur_299_28942"/>
</filter>
<filter id="filter1_b_299_28942" x="78.8047" y="29.1044" width="123.633" height="123.632" filterUnits="userSpaceOnUse" color-interpolation-filters="sRGB">
<feFlood flood-opacity="0" result="BackgroundImageFix"/>
<feGaussianBlur in="BackgroundImageFix" stdDeviation="12.5"/>
<feComposite in2="SourceAlpha" operator="in" result="effect1_backgroundBlur_299_28942"/>
<feBlend mode="normal" in="SourceGraphic" in2="effect1_backgroundBlur_299_28942" result="shape"/>
</filter>
<filter id="filter2_f_299_28942" x="12.3906" y="-15.609" width="164.365" height="192.898" filterUnits="userSpaceOnUse" color-interpolation-filters="sRGB">
<feFlood flood-opacity="0" result="BackgroundImageFix"/>
<feBlend mode="normal" in="SourceGraphic" in2="BackgroundImageFix" result="shape"/>
<feGaussianBlur stdDeviation="10" result="effect1_foregroundBlur_299_28942"/>
</filter>
<filter id="filter3_f_299_28942" x="85" y="52.0006" width="111.207" height="111.208" filterUnits="userSpaceOnUse" color-interpolation-filters="sRGB">
<feFlood flood-opacity="0" result="BackgroundImageFix"/>
<feBlend mode="normal" in="SourceGraphic" in2="BackgroundImageFix" result="shape"/>
<feGaussianBlur stdDeviation="8" result="effect1_foregroundBlur_299_28942"/>
</filter>
<linearGradient id="paint0_linear_299_28942" x1="86.7768" y1="18.9077" x2="76.234" y2="160.829" gradientUnits="userSpaceOnUse">
<stop stop-color="#E2E8F0"/>
<stop offset="0.794174" stop-color="#EEF1F7"/>
</linearGradient>
<linearGradient id="paint1_linear_299_28942" x1="83.1569" y1="20.1641" x2="88.6569" y2="96.6641" gradientUnits="userSpaceOnUse">
<stop offset="0.168191" stop-color="#BEC7D9"/>
<stop offset="1" stop-color="#BEC7D9" stop-opacity="0.53"/>
</linearGradient>
<linearGradient id="paint2_linear_299_28942" x1="87.2044" y1="9.7206" x2="101.943" y2="151.959" gradientUnits="userSpaceOnUse">
<stop offset="0.330415" stop-color="#768BAA" stop-opacity="0"/>
<stop offset="0.69452" stop-color="#768BAA"/>
</linearGradient>
<linearGradient id="paint3_linear_299_28942" x1="140.604" y1="52.0006" x2="140.604" y2="131.208" gradientUnits="userSpaceOnUse">
<stop stop-color="#889BB7"/>
<stop offset="0.72594" stop-color="#768BAA"/>
</linearGradient>
</defs>
</svg>
