<svg width="48" height="48" viewBox="0 0 48 48" fill="none" xmlns="http://www.w3.org/2000/svg">
<circle cx="24" cy="24" r="24" fill="#DDE9FF"/>
<path fill-rule="evenodd" clip-rule="evenodd" d="M17.4004 12C15.7435 12 14.4004 13.3431 14.4004 15V34.2C14.4004 35.8569 15.7435 37.2 17.4004 37.2H31.8004C33.4572 37.2 34.8004 35.8569 34.8004 34.2V15C34.8004 13.3431 33.4572 12 31.8004 12H17.4004ZM18.0004 16.8C18.0004 16.1373 18.5376 15.6 19.2004 15.6H30.0004C30.6631 15.6 31.2004 16.1373 31.2004 16.8C31.2004 17.4627 30.6631 18 30.0004 18H19.2004C18.5376 18 18.0004 17.4627 18.0004 16.8ZM18.0004 21.6001C18.0004 20.9374 18.5376 20.4001 19.2004 20.4001H27.3004C27.9631 20.4001 28.5004 20.9374 28.5004 21.6001C28.5004 22.2629 27.9631 22.8001 27.3004 22.8001H19.2004C18.5376 22.8001 18.0004 22.2629 18.0004 21.6001ZM29.6254 33.75C30.6609 33.75 31.5004 32.9105 31.5004 31.875C31.5004 30.8395 30.6609 30 29.6254 30C28.5899 30 27.7504 30.8395 27.7504 31.875C27.7504 32.9105 28.5899 33.75 29.6254 33.75Z" fill="#0062FF"/>
</svg>
